<svg xmlns="http://www.w3.org/2000/svg" viewBox="0 0 64 64" role="img" aria-label="FlotaControl">
  <defs>
    <linearGradient id="bg" x1="0" y1="0" x2="1" y2="1">
      <stop offset="0%" stop-color="#2563eb"/>
      <stop offset="100%" stop-color="#1d4ed8"/>
    </linearGradient>
  </defs>
  <rect x="4" y="4" width="56" height="56" rx="14" fill="url(#bg)"/>
  <g fill="none" stroke="#ffffff" stroke-width="3.5" stroke-linecap="round" stroke-linejoin="round">
    <path d="M18 39V26a4 4 0 0 1 4-4h17a4 4 0 0 1 4 4v13"/>
    <path d="M43 39h6a3 3 0 0 0 3-3v-5.2a3 3 0 0 0-.7-1.9l-4.5-5.3a3 3 0 0 0-2.3-1.1H43"/>
    <circle cx="24" cy="39" r="3"/>
    <circle cx="43" cy="39" r="3"/>
  </g>
</svg>
